<svg width="100%" height="100%" viewBox="0 0 238 104" fill="none" xmlns="http://www.w3.org/2000/svg">
<path fill-rule="evenodd" clip-rule="evenodd" d="M39.7609 14.8145V29.6038H54.6269H69.4929V65.8376V102.072H83.6156H97.7383V65.8376V29.6038H112.604H127.47V14.8145V0.0251393H83.6156H39.7609V14.8145ZM0 52.5273V102.072H14.866H29.732V52.5273V0H14.866H0V52.5273Z" fill="currentColor"/>
<path fill-rule="evenodd" clip-rule="evenodd" d="M143.432 9.72996L133.671 19.4585L149.948 35.73L166.223 52L149.948 68.27L133.671 84.5415L143.432 94.2701L153.191 104L169.514 87.7747L185.836 71.5509L202.157 87.7747L218.48 104L228.239 94.2701L238 84.5415L221.723 68.27L205.448 52L221.723 35.73L238 19.4585L228.239 9.72996L218.48 0L202.157 16.2253L185.836 32.4491L169.514 16.2253L153.191 0L143.432 9.72996Z" fill="currentColor"/>
</svg>
