<svg width="182" height="76" viewBox="0 0 182 76" fill="none" xmlns="http://www.w3.org/2000/svg">
<path fill-rule="evenodd" clip-rule="evenodd" d="M34.0508 13.7176V23.4929H44.3898H54.7288V47.4423V71.3918H64.5509H74.3729V47.4423V23.4929H84.7119H95.0509V13.7176V3.94234H64.5509H34.0508V13.7176ZM2 38.6446V71.3918H12.339H22.678V38.6446V3.92572H12.339H2V38.6446Z" stroke="#7272D1" stroke-width="3"/>
<path fill-rule="evenodd" clip-rule="evenodd" d="M112.014 9.58365L105.051 16.1663L116.663 27.1762L128.273 38.1851L116.663 49.1941L105.051 60.204L112.014 66.7866L118.976 73.3703L130.621 62.3917L142.265 51.414L153.909 62.3917L165.554 73.3703L172.516 66.7866L179.479 60.204L167.867 49.1941L156.257 38.1851L167.867 27.1762L179.479 16.1663L172.516 9.58365L165.554 3L153.909 13.9786L142.265 24.9563L130.621 13.9786L118.976 3L112.014 9.58365Z" stroke="#FF66CC" stroke-width="3"/>
</svg>
